HIERARCHY
ROOT SpineBase
{
  OFFSET 0.000000 0.000000 0.000000
  CHANNELS 6 Xposition Yposition Zposition Zrotation Xrotation Yrotation
  JOINT SpineMid
  {
    OFFSET -0.000000 31.652950 0.000000
    CHANNELS 3 Zrotation Xrotation Yrotation
    JOINT SpineShoulder
    {
      OFFSET 0.051979 23.447792 -0.805770
      CHANNELS 3 Zrotation Xrotation Yrotation
      JOINT Neck
      {
        OFFSET 0.037248 7.734398 -0.596570
        CHANNELS 3 Zrotation Xrotation Yrotation
        JOINT Head
        {
          OFFSET -5.755759 12.686747 1.199737
          CHANNELS 3 Zrotation Xrotation Yrotation
          End Site
          {
            OFFSET 0 0 0
          }
        }
      }
      JOINT ShoulderLeft
      {
        OFFSET -15.804728 -4.657682 6.603259
        CHANNELS 3 Zrotation Xrotation Yrotation
        JOINT ElbowLeft
        {
          OFFSET -3.714202 -26.695365 6.325371
          CHANNELS 3 Zrotation Xrotation Yrotation
          JOINT WristLeft
          {
            OFFSET -0.680773 -22.883256 -2.129275
            CHANNELS 3 Zrotation Xrotation Yrotation
            JOINT HandLeft
            {
              OFFSET -1.903033 -7.404226 -0.899476
              CHANNELS 3 Zrotation Xrotation Yrotation
              JOINT HandTipLeft
              {
                OFFSET -0.149304 -8.435225 -0.004709
                CHANNELS 3 Zrotation Xrotation Yrotation
                End Site
                {
                  OFFSET 0 0 0
                }
              }
              JOINT ThumbLeft
              {
                OFFSET 2.745224 -1.626746 -0.478550
                CHANNELS 3 Zrotation Xrotation Yrotation
                End Site
                {
                  OFFSET 0 0 0
                }
              }
            }
          }
        }
      }
      JOINT ShoulderRight
      {
        OFFSET 13.496740 -4.781260 -9.688809
        CHANNELS 3 Zrotation Xrotation Yrotation
        JOINT ElbowRight
        {
          OFFSET 7.197316 -27.233812 -3.311556
          CHANNELS 3 Zrotation Xrotation Yrotation
          JOINT WristRight
          {
            OFFSET 0.495447 -22.066007 -4.369984
            CHANNELS 3 Zrotation Xrotation Yrotation
            JOINT HandRight
            {
              OFFSET -0.419493 -6.202945 -0.284179
              CHANNELS 3 Zrotation Xrotation Yrotation
              JOINT HandTipRight
              {
                OFFSET -0.876931 -7.766295 -0.332982
                CHANNELS 3 Zrotation Xrotation Yrotation
                End Site
                {
                  OFFSET 0 0 0
                }
              }
              JOINT ThumbRight
              {
                OFFSET -3.825886 1.211453 0.620543
                CHANNELS 3 Zrotation Xrotation Yrotation
                End Site
                {
                  OFFSET 0 0 0
                }
              }
            }
          }
        }
      }
    }
  }
  JOINT HipLeft
  {
    OFFSET -6.683553 -0.023704 -0.446391
    CHANNELS 3 Zrotation Xrotation Yrotation
    JOINT KneeLeft
    {
      OFFSET 3.004967 -37.342158 7.087966
      CHANNELS 3 Zrotation Xrotation Yrotation
      JOINT AnkleLeft
      {
        OFFSET 5.715516 -34.643863 9.601646
        CHANNELS 3 Zrotation Xrotation Yrotation
        JOINT FootLeft
        {
          OFFSET -2.342807 -8.289808 -5.387738
          CHANNELS 3 Zrotation Xrotation Yrotation
          End Site
          {
            OFFSET 0 0 0
          }
        }
      }
    }
  }
  JOINT HipRight
  {
    OFFSET 7.013141 1.374093 -6.658344
    CHANNELS 3 Zrotation Xrotation Yrotation
    JOINT KneeRight
    {
      OFFSET 8.783313 -35.379638 1.934560
      CHANNELS 3 Zrotation Xrotation Yrotation
      JOINT AnkleRight
      {
        OFFSET 8.910669 -37.987480 11.652184
        CHANNELS 3 Zrotation Xrotation Yrotation
        JOINT FootRight
        {
          OFFSET -0.247309 -8.705883 -4.592310
          CHANNELS 3 Zrotation Xrotation Yrotation
          End Site
          {
            OFFSET 0 0 0
          }
        }
      }
    }
  }
}
MOTION
Frames: 9
Frame Time: 0.033333
-14.253222 82.606546 335.340677 0.000000 0.000000 24.396033 -0.000000 0.000000 -24.396033 -0.000000 0.000000 0.000000 -0.000000 0.000000 0.000000 0.000000 0.000000 0.000000 -0.000000 0.000000 0.000000 -0.000000 0.000000 0.000000 -0.000000 0.000000 0.000000 -0.000000 0.000000 0.000000 0.000000 0.000000 0.000000 0.000000 0.000000 0.000000 -0.000000 0.000000 0.000000 -0.000000 0.000000 0.000000 -0.000000 0.000000 0.000000 -0.000000 0.000000 0.000000 0.000000 0.000000 0.000000 0.000000 0.000000 0.000000 -0.000000 0.000000 -24.396033 -0.000000 0.000000 0.000000 -0.000000 0.000000 0.000000 0.000000 0.000000 0.000000 -0.000000 0.000000 -24.396033 -0.000000 0.000000 0.000000 -0.000000 0.000000 0.000000 0.000000 0.000000 0.000000
-14.054327 82.564347 335.204689 -0.092608 -0.007694 24.568370 0.087423 -0.031507 -24.568352 -0.000000 0.000000 0.000000 -0.000000 0.000000 0.000000 0.000000 0.000000 0.000000 -0.000000 0.000000 0.000000 -1.384573 1.599417 0.100415 3.478573 -0.422526 -0.584623 -2.083757 -1.200451 0.538050 0.000000 0.000000 0.000000 0.000000 0.000000 0.000000 -0.000000 0.000000 0.000000 -0.000000 0.000000 0.000000 0.620487 0.593219 -0.071767 0.985493 -0.607552 0.015010 0.000000 0.000000 0.000000 0.000000 0.000000 0.000000 0.087423 -0.031507 -24.568352 -0.000000 0.000000 0.000000 -0.000000 0.000000 0.000000 0.000000 0.000000 0.000000 0.087423 -0.031507 -24.568352 -0.000000 0.000000 0.000000 -0.000000 0.000000 0.000000 0.000000 0.000000 0.000000
-13.878428 82.526704 335.083190 -0.198437 -0.043152 24.717587 0.198300 -0.043777 -24.717586 -0.000000 0.000000 0.000000 -0.863521 -0.326216 -0.069050 0.000000 0.000000 0.000000 -0.645836 1.071063 -0.296441 -1.744056 1.873139 0.458580 6.750847 -1.036104 -0.952901 -4.340260 -1.997535 0.957946 0.000000 0.000000 0.000000 0.000000 0.000000 0.000000 -0.000000 0.000000 0.000000 -0.000000 0.000000 0.000000 0.951797 1.072210 -0.125043 1.957159 -1.141969 0.046930 0.000000 0.000000 0.000000 0.000000 0.000000 0.000000 0.198300 -0.043777 -24.717586 -0.000000 0.000000 0.000000 -0.000000 0.000000 0.000000 0.000000 0.000000 0.000000 0.198300 -0.043777 -24.717586 -0.000000 0.000000 0.000000 -0.000000 0.000000 0.000000 0.000000 0.000000 0.000000
-13.725524 82.493618 334.976181 -0.317490 -0.106355 24.843578 0.332793 -0.036879 -24.843766 -0.000000 0.000000 0.000000 -1.296239 -0.425110 -0.075503 0.000000 0.000000 0.000000 -0.891980 1.426522 -0.399481 -2.107646 2.617707 0.609168 9.723268 -1.910830 -1.086513 -6.695682 -2.295482 1.254238 0.000000 0.000000 0.000000 0.000000 0.000000 0.000000 -0.000000 0.000000 0.000000 -0.000000 0.000000 0.000000 0.987726 1.431340 -0.154396 2.918379 -1.597800 0.085045 0.000000 0.000000 0.000000 0.000000 0.000000 0.000000 0.332793 -0.036879 -24.843766 -0.000000 0.000000 0.000000 -0.000000 0.000000 0.000000 0.000000 0.000000 0.000000 0.332793 -0.036879 -24.843766 -0.000000 0.000000 0.000000 0.862896 -0.167007 -0.449620 0.000000 0.000000 0.000000
-13.595616 82.465089 334.883661 -0.449776 -0.197293 24.946212 0.491025 -0.010818 -24.946940 -0.000000 0.000000 0.000000 -1.729343 -0.481434 -0.062589 0.000000 0.000000 0.000000 -1.087963 1.661832 -0.474249 -2.121863 3.236419 0.699516 12.290112 -3.083393 -0.972854 -9.053837 -2.031628 1.437292 0.000000 0.000000 0.000000 0.000000 0.000000 0.000000 -0.000000 0.000000 0.000000 -0.000000 0.000000 0.000000 0.728863 1.667397 -0.156732 3.866685 -1.972776 0.120147 0.000000 0.000000 0.000000 0.000000 0.000000 0.000000 0.491025 -0.010818 -24.946940 -0.000000 0.000000 0.000000 -0.000000 0.000000 0.000000 0.000000 0.000000 0.000000 0.491025 -0.010818 -24.946940 -0.515380 -0.626781 -0.307738 1.437596 0.450586 -0.189635 0.000000 0.000000 0.000000
-13.488704 82.441117 334.805630 -0.595308 -0.315962 25.025326 0.673077 0.034461 -25.027170 -0.000000 0.000000 0.000000 -2.162698 -0.495404 -0.029834 0.000000 0.000000 0.000000 -1.234302 1.776972 -0.521719 -1.779949 3.729666 0.724191 14.344942 -4.545928 -0.613982 -11.307725 -1.190948 1.529281 0.000000 0.000000 0.000000 0.000000 0.000000 0.000000 -0.000000 0.000000 0.000000 -0.000000 0.000000 0.000000 0.182505 1.779491 -0.131469 4.793169 -2.267575 0.144819 0.000000 0.000000 0.000000 0.000000 0.000000 0.000000 0.673077 0.034461 -25.027170 -0.000000 0.000000 0.000000 -0.000000 0.000000 0.000000 0.000000 0.000000 0.000000 0.673077 0.034461 -25.027170 -0.596960 -0.735090 -0.359104 1.466801 0.563719 -0.114496 0.000000 0.000000 0.000000
-13.413220 82.411112 334.744960 -0.766832 -0.478858 25.038677 -0.052670 0.062264 -25.069222 0.002123 0.018378 -0.034589 -2.008111 -0.050609 0.123411 0.000000 0.000000 0.000000 -0.550907 2.107006 -0.473378 -0.740411 4.061945 0.651576 16.209117 -7.441455 0.452218 -13.395318 -0.066797 1.475153 0.000000 0.000000 0.000000 0.000000 0.000000 0.000000 0.838307 0.427276 0.059497 -0.000000 0.000000 0.000000 -1.044193 1.953239 -0.066374 5.460593 -2.614711 0.164844 0.000000 0.000000 0.000000 0.000000 0.000000 0.000000 0.195848 -0.315108 -25.185275 -0.323452 0.996221 -0.013599 0.777808 -0.313364 0.165692 0.000000 0.000000 0.000000 0.897431 0.109276 -25.042737 -0.659553 -0.843150 -0.404576 0.653655 0.847731 0.394888 0.000000 0.000000 0.000000
-13.361304 82.403832 334.698199 -0.958626 -0.646294 25.128926 -0.128300 0.057979 -25.169827 -0.018250 0.006024 -0.046577 -2.284727 0.258340 0.255003 0.000000 0.000000 0.000000 -0.295285 2.294299 -0.451789 0.555784 4.412523 0.501504 16.890847 -9.821659 1.468804 -14.521124 3.472742 1.361383 0.000000 0.000000 0.000000 0.000000 0.000000 0.000000 1.116727 0.643867 0.076799 -0.000000 0.000000 0.000000 -2.031980 1.747883 0.005875 5.894156 -2.582490 0.131643 0.000000 0.000000 0.000000 0.000000 0.000000 0.000000 0.398131 -0.248839 -25.286451 -0.291455 0.998531 -0.009369 0.782087 -0.294530 0.169867 0.000000 0.000000 0.000000 1.142346 0.177964 -25.136107 -0.706733 -0.914221 -0.436436 0.699839 0.919509 0.425182 0.000000 0.000000 0.000000
-13.314929 82.398265 334.663964 -1.142252 -0.828596 25.130165 -0.203829 0.033747 -25.181598 -0.027741 -0.012297 -0.057017 -2.329435 0.578952 0.349070 0.000000 0.000000 0.000000 0.034201 2.370736 -0.392448 1.927796 4.410247 0.289949 16.564265 -11.207611 2.170136 -15.065456 4.279597 1.281038 0.000000 0.000000 0.000000 0.000000 0.000000 0.000000 1.367313 0.899286 0.090467 -0.000000 0.000000 0.000000 -3.485479 1.433525 0.106119 6.244619 -3.008857 0.147911 0.000000 0.000000 0.000000 0.000000 0.000000 0.000000 0.588511 -0.008835 -25.301928 0.604005 0.588346 0.158980 -0.000000 0.000000 0.000000 0.000000 0.000000 0.000000 1.386016 0.264937 -25.141630 -0.729330 -0.942051 -0.450227 0.722004 0.947678 0.438260 0.000000 0.000000 0.000000
